<svg xmlns="http://www.w3.org/2000/svg" width="24" height="24" viewBox="0 0 24 24" fill="#E6001D">
  <path d="M22.2 9.4c.2.7.2 1.4.2 2 0 5.2-3.5 11.2-10 11.2-2 0-3.8-.5-5.3-1.5h.8c1.6 0 3.1-.5 4.4-1.5-1.5 0-2.8-1-3.3-2.4.2 0 .4.1.7.1.3 0 .6 0 .9-.1-1.6-.3-2.8-1.7-2.8-3.4v-.1c.5.3 1 .4 1.6.5-.9-.6-1.5-1.7-1.5-2.9 0-.6.2-1.2.5-1.7 1.7 2.1 4.3 3.5 7.2 3.6-.1-.3-.1-.5-.1-.8 0-1.9 1.5-3.4 3.4-3.4 1 0 1.9.4 2.5 1.1.8-.2 1.5-.5 2.2-.9-.3.8-.8 1.5-1.5 1.9.7-.1 1.4-.3 2-.5-.5.7-1.1 1.3-1.8 1.8z"/>
</svg>
