<svg xmlns="http://www.w3.org/2000/svg" xmlns:xlink="http://www.w3.org/1999/xlink" width="1817.954" height="1080" viewBox="0 0 1817.954 1080">
  <defs>
    <clipPath id="clip-path">
      <rect id="Rectangle_92" data-name="Rectangle 92" width="1817.954" height="1080" transform="translate(51.022 4319.586)" fill="none"/>
    </clipPath>
    <linearGradient id="linear-gradient" x1="-0.178" y1="1.22" x2="0.499" y2="0.501" gradientUnits="objectBoundingBox">
      <stop offset="0" stop-color="#7237bd"/>
      <stop offset="0.998" stop-color="#fd0988"/>
    </linearGradient>
    <linearGradient id="linear-gradient-2" x1="0.041" y1="0.987" x2="0.5" y2="0.5" xlink:href="#linear-gradient"/>
    <linearGradient id="linear-gradient-3" x1="0.143" y1="0.879" x2="0.5" y2="0.5" xlink:href="#linear-gradient"/>
  </defs>
  <g id="Group_188" data-name="Group 188" transform="translate(-51.022 -4319.586)" clip-path="url(#clip-path)">
    <g id="Group_187" data-name="Group 187">
      <g id="Group_184" data-name="Group 184">
        <path id="Path_300" data-name="Path 300" d="M-111.68,5027.49a134.829,134.829,0,0,1,102.2-18.617,134.83,134.83,0,0,1,85.426,59.1,134.829,134.829,0,0,1,18.617,102.195,134.833,134.833,0,0,1-59.1,85.426,134.831,134.831,0,0,1-102.194,18.617,134.832,134.832,0,0,1-85.427-59.1,134.834,134.834,0,0,1-18.617-102.195A134.83,134.83,0,0,1-111.68,5027.49Zm146,226.334c61.914-39.938,79.792-122.8,39.854-184.712s-122.8-79.792-184.712-39.854-79.791,122.8-39.854,184.712S-27.594,5293.762,34.319,5253.824Z" fill="url(#linear-gradient)"/>
      </g>
      <g id="Group_185" data-name="Group 185">
        <path id="Path_301" data-name="Path 301" d="M-146.963,4972.792a199.564,199.564,0,0,1,74.239-29.109,200.137,200.137,0,0,1,76.967,1.564,200.112,200.112,0,0,1,70.764,30.311,199.545,199.545,0,0,1,55.632,57.13,199.56,199.56,0,0,1,29.109,74.239,200.136,200.136,0,0,1-1.564,76.967,200.136,200.136,0,0,1-30.31,70.764,199.56,199.56,0,0,1-57.131,55.632A199.573,199.573,0,0,1-3.5,5339.4a200.138,200.138,0,0,1-76.967-1.564,200.155,200.155,0,0,1-70.764-30.311,199.571,199.571,0,0,1-55.632-57.13,199.576,199.576,0,0,1-29.109-74.239,200.133,200.133,0,0,1,1.564-76.967,200.156,200.156,0,0,1,30.311-70.764A199.557,199.557,0,0,1-146.963,4972.792ZM69.6,5308.521c92.073-59.392,118.66-182.619,59.268-274.692s-182.62-118.661-274.693-59.269-118.661,182.62-59.268,274.693S-22.471,5367.914,69.6,5308.521Z" fill="url(#linear-gradient-2)"/>
      </g>
      <g id="Group_186" data-name="Group 186">
        <path id="Path_302" data-name="Path 302" d="M-177.988,4924.7a256.445,256.445,0,0,1,95.4-37.406,257.214,257.214,0,0,1,98.9,2.01,257.207,257.207,0,0,1,90.933,38.95,256.429,256.429,0,0,1,71.488,73.413,256.443,256.443,0,0,1,37.406,95.4,257.208,257.208,0,0,1-2.01,98.9,257.179,257.179,0,0,1-38.95,90.933,256.431,256.431,0,0,1-73.413,71.488,256.438,256.438,0,0,1-95.4,37.406,257.214,257.214,0,0,1-98.9-2.01,257.206,257.206,0,0,1-90.933-38.95,256.442,256.442,0,0,1-71.488-73.413,256.43,256.43,0,0,1-37.4-95.4,257.188,257.188,0,0,1,2.009-98.9,257.2,257.2,0,0,1,38.95-90.933A256.431,256.431,0,0,1-177.988,4924.7Zm278.615,431.921c118.594-76.5,152.84-235.219,76.34-353.813s-235.22-152.84-353.814-76.34-152.839,235.22-76.339,353.814S-17.966,5433.117,100.627,5356.617Z" fill="url(#linear-gradient-3)"/>
      </g>
    </g>
  </g>
</svg>
